<?xml version="1.0" standalone="no"?><svg xmlns:xlink="http://www.w3.org/1999/xlink" xmlns="http://www.w3.org/2000/svg" viewBox="0 0 1000 1000" preserveAspectRatio="xMaxYMax slice"><g transform="scale(1.4771048744460857)"><rect x="0" y="0" width="677" height="677" fill="#fafafa"/><g transform="translate(148.94,13.54) scale(5.4159999999999995) rotate(0)"><path d="M10 0L20 10L10 20L0 10L10 0Z" fill="#f5f5a5"/></g><path d="M 284.34 121.85999999999999 A 108.32 108.32 0 0 1  392.65999999999997 13.54 L 284.34 121.85999999999999 A 108.32 108.32 0 0 0 392.65999999999997 13.54" fill="#a9f2cd"/><rect x="419.74000000000007" y="13.540000000000001" width="108.32000000000001" height="108.32000000000001" fill="#fafafa"/><rect x="473.9" y="13.54" width="54.16" height="54.16" fill="#d5f6e6"/><g transform="translate(419.74,67.7) scale(2.7079999999999997) rotate(0)"><path d="M10 0L20 10L10 20L0 10L10 0Z" fill="#f8f8de"/></g><g transform="translate(555.14,13.54) scale(5.4159999999999995) rotate(0)"><path d="M10 0L20 10L10 20L0 10L10 0Z" fill="#eff9f4"/></g><path d="M 555.14 148.94 A 108.32 108.32 0 0 1  663.46 257.26 L 555.14 148.94 A 108.32 108.32 0 0 0 663.46 257.26" fill="#f4f49d"/><rect x="13.540000000000001" y="284.34000000000003" width="108.32000000000001" height="108.32000000000001" fill="#fafafa"/><rect x="67.7" y="284.34" width="54.16" height="54.16" fill="#75ecb1"/><g transform="translate(13.54,338.5) scale(2.7079999999999997) rotate(0)"><path d="M10 0L20 10L10 20L0 10L10 0Z" fill="#6decad"/></g><rect x="148.94" y="284.34" width="108.32" height="108.32" fill="#d3f6e5"/><rect x="284.34" y="284.34" width="108.32" height="108.32" fill="#f9f9e7"/></g></svg>