<?xml version="1.0" standalone="no"?><svg xmlns:xlink="http://www.w3.org/1999/xlink" xmlns="http://www.w3.org/2000/svg" viewBox="0 0 2000 500.00000000000006" preserveAspectRatio="xMaxYMax slice"><g transform="scale(1.3245033112582782)"><rect x="0" y="0" width="1510" height="377.5" fill="#ffffff"/><g transform="translate(75.5,75.5) scale(3.775) rotate(0)"><path d="M10 0L20 10L10 20L0 10L10 0Z" fill="#ffffff"/></g><rect x="151" y="75.5" width="75.5" height="75.5" fill="#ffffff"/><g transform="translate(151,113.25) scale(1.8875) rotate(0)"><path d="M10 0L20 10L10 20L0 10L10 0Z" fill="#f4f4a2"/></g><g transform="translate(377.5,75.5) scale(3.775) rotate(0)"><path d="M10 0L20 10L10 20L0 10L10 0Z" fill="#f5f5a7"/></g><rect x="830.5" y="75.5" width="75.5" height="75.5" fill="#ffffff"/><g transform="translate(981.5,75.5) scale(3.775) rotate(0)"><path d="M10 0L20 10L10 20L0 10L10 0Z" fill="#ffffff"/></g><rect x="1283.5" y="75.5" width="75.5" height="75.5" fill="#ffffff"/><rect x="0" y="151" width="75.5" height="75.5" fill="#ffffff"/><path d="M 0 151 A 37.75 37.75 0 0 1  37.75 188.75 L 0 151 A 37.75 37.75 0 0 0 37.75 188.75" fill="#ffffff"/><g transform="translate(37.75,151) scale(1.8875) rotate(0)"><path d="M10 0L20 10L10 20L0 10L10 0Z" fill="#79eeb4"/></g><rect x="37.75" y="188.75" width="37.75" height="37.75" fill="#ffffff"/><rect x="151" y="151" width="75.5" height="75.5" fill="#8ff1c0"/><rect x="302" y="151" width="75.5" height="75.5" fill="#ffffff"/><path d="M 302 188.75 A 37.75 37.75 0 0 1  339.75 151 L 302 188.75 A 37.75 37.75 0 0 0 339.75 151" fill="#ffffff"/><rect x="302" y="188.75" width="37.75" height="37.75" fill="#ffffff"/><path d="M 339.75 226.5 A 37.75 37.75 0 0 1  377.5 188.75 L 339.75 226.5 A 37.75 37.75 0 0 0 377.5 188.75" fill="#f3f397"/><rect x="679.5" y="151" width="75.5" height="75.5" fill="#ffffff"/><rect x="906" y="151" width="75.5" height="75.5" fill="#ffffff"/><rect x="981.5" y="151" width="75.5" height="75.5" fill="#ffffff"/><rect x="1019.25" y="151" width="37.75" height="37.75" fill="#ffffff"/><path d="M 1019.25 188.75 A 37.75 37.75 0 0 1  1057 226.5 L 1019.25 188.75 A 37.75 37.75 0 0 0 1057 226.5" fill="#ffffff"/><rect x="1132.5" y="151" width="75.5" height="75.5" fill="#ffffff"/><rect x="1132.5" y="151" width="37.75" height="37.75" fill="#98f2c5"/><g transform="translate(1170.25,151) scale(1.8875) rotate(0)"><path d="M10 0L20 10L10 20L0 10L10 0Z" fill="#ffffff"/></g><g transform="translate(1170.25,188.75) scale(1.8875) rotate(0)"><path d="M10 0L20 10L10 20L0 10L10 0Z" fill="#f3f394"/></g><rect x="1283.5" y="151" width="75.5" height="75.5" fill="#ffffff"/><path d="M 1321.25 226.5 A 37.75 37.75 0 0 1  1359 188.75 L 1321.25 226.5 A 37.75 37.75 0 0 0 1359 188.75" fill="#cdf9e3"/><rect x="1359" y="151" width="75.5" height="75.5" fill="#ffffff"/><path d="M 1359 151 A 37.75 37.75 0 0 1  1396.75 188.75 L 1359 151 A 37.75 37.75 0 0 0 1396.75 188.75" fill="#ffffff"/><rect x="1396.75" y="151" width="37.75" height="37.75" fill="#fefef6"/><rect x="1434.5" y="151" width="75.5" height="75.5" fill="#ffffff"/><g transform="translate(1434.5,151) scale(1.8875) rotate(0)"><path d="M10 0L20 10L10 20L0 10L10 0Z" fill="#d9fae9"/></g><rect x="0" y="226.5" width="75.5" height="75.5" fill="#ffffff"/><rect x="0" y="226.5" width="37.75" height="37.75" fill="#ffffff"/><g transform="translate(37.75,226.5) scale(1.8875) rotate(0)"><path d="M10 0L20 10L10 20L0 10L10 0Z" fill="#68ecaa"/></g><rect x="0" y="264.25" width="37.75" height="37.75" fill="#ffffff"/><path d="M 37.75 302 A 37.75 37.75 0 0 1  75.5 264.25 L 37.75 302 A 37.75 37.75 0 0 0 75.5 264.25" fill="#ffffff"/><rect x="75.5" y="226.5" width="75.5" height="75.5" fill="#f9f9c8"/><rect x="302" y="226.5" width="75.5" height="75.5" fill="#ffffff"/><rect x="302" y="226.5" width="37.75" height="37.75" fill="#ffffff"/><path d="M 302 302 A 37.75 37.75 0 0 1  339.75 264.25 L 302 302 A 37.75 37.75 0 0 0 339.75 264.25" fill="#ffffff"/><g transform="translate(339.75,264.25) scale(1.8875) rotate(0)"><path d="M10 0L20 10L10 20L0 10L10 0Z" fill="#ffffff"/></g><rect x="377.5" y="226.5" width="75.5" height="75.5" fill="#ffffff"/><rect x="453" y="226.5" width="75.5" height="75.5" fill="#ffffff"/><rect x="453" y="226.5" width="37.75" height="37.75" fill="#fcfce6"/><path d="M 453 264.25 A 37.75 37.75 0 0 1  490.75 302 L 453 264.25 A 37.75 37.75 0 0 0 490.75 302" fill="#f6f6b3"/><g transform="translate(490.75,264.25) scale(1.8875) rotate(0)"><path d="M10 0L20 10L10 20L0 10L10 0Z" fill="#ffffff"/></g><path d="M 528.5 302 A 75.5 75.5 0 0 1  604 226.5 L 528.5 302 A 75.5 75.5 0 0 0 604 226.5" fill="#ffffff"/><g transform="translate(679.5,226.5) scale(3.775) rotate(0)"><path d="M10 0L20 10L10 20L0 10L10 0Z" fill="#3fe793"/></g><rect x="755" y="226.5" width="75.5" height="75.5" fill="#ffffff"/><path d="M 792.75 226.5 A 37.75 37.75 0 0 1  830.5 264.25 L 792.75 226.5 A 37.75 37.75 0 0 0 830.5 264.25" fill="#a4f4cc"/><rect x="830.5" y="226.5" width="75.5" height="75.5" fill="#ffffff"/><g transform="translate(906,226.5) scale(3.775) rotate(0)"><path d="M10 0L20 10L10 20L0 10L10 0Z" fill="#f5f5aa"/></g><g transform="translate(981.5,226.5) scale(3.775) rotate(0)"><path d="M10 0L20 10L10 20L0 10L10 0Z" fill="#ffffff"/></g><g transform="translate(1057,226.5) scale(3.775) rotate(0)"><path d="M10 0L20 10L10 20L0 10L10 0Z" fill="#e8fcf2"/></g><rect x="1132.5" y="226.5" width="75.5" height="75.5" fill="#ffffff"/><rect x="1208" y="226.5" width="75.5" height="75.5" fill="#ffffff"/><rect x="1283.5" y="226.5" width="75.5" height="75.5" fill="#ffffff"/><g transform="translate(1283.5,226.5) scale(1.8875) rotate(0)"><path d="M10 0L20 10L10 20L0 10L10 0Z" fill="#ffffff"/></g><g transform="translate(1321.25,226.5) scale(1.8875) rotate(0)"><path d="M10 0L20 10L10 20L0 10L10 0Z" fill="#ffffff"/></g><path d="M 1283.5 302 A 37.75 37.75 0 0 1  1321.25 264.25 L 1283.5 302 A 37.75 37.75 0 0 0 1321.25 264.25" fill="#ffffff"/><rect x="1321.25" y="264.25" width="37.75" height="37.75" fill="#f8f8c0"/><g transform="translate(1359,226.5) scale(3.775) rotate(0)"><path d="M10 0L20 10L10 20L0 10L10 0Z" fill="#3fe793"/></g><rect x="1434.5" y="226.5" width="75.5" height="75.5" fill="#ffffff"/><g transform="translate(1434.5,226.5) scale(1.8875) rotate(0)"><path d="M10 0L20 10L10 20L0 10L10 0Z" fill="#ffffff"/></g><rect x="1434.5" y="264.25" width="37.75" height="37.75" fill="#fafefc"/><path d="M 1472.25 302 A 37.75 37.75 0 0 1  1510 264.25 L 1472.25 302 A 37.75 37.75 0 0 0 1510 264.25" fill="#ffffff"/><rect x="0" y="302" width="75.5" height="75.5" fill="#ffffff"/><path d="M 0 302 A 37.75 37.75 0 0 1  37.75 339.75 L 0 302 A 37.75 37.75 0 0 0 37.75 339.75" fill="#ffffff"/><path d="M 37.75 339.75 A 37.75 37.75 0 0 1  75.5 302 L 37.75 339.75 A 37.75 37.75 0 0 0 75.5 302" fill="#ffffff"/><g transform="translate(0,339.75) scale(1.8875) rotate(0)"><path d="M10 0L20 10L10 20L0 10L10 0Z" fill="#ffffff"/></g><rect x="37.75" y="339.75" width="37.75" height="37.75" fill="#ffffff"/><rect x="75.5" y="302" width="75.5" height="75.5" fill="#ffffff"/><rect x="75.5" y="302" width="37.75" height="37.75" fill="#ffffff"/><rect x="113.25" y="302" width="37.75" height="37.75" fill="#ffffff"/><path d="M 75.5 377.5 A 37.75 37.75 0 0 1  113.25 339.75 L 75.5 377.5 A 37.75 37.75 0 0 0 113.25 339.75" fill="#59eaa2"/><rect x="151" y="302" width="75.5" height="75.5" fill="#ffffff"/><path d="M 151 339.75 A 37.75 37.75 0 0 1  188.75 302 L 151 339.75 A 37.75 37.75 0 0 0 188.75 302" fill="#ffffff"/><path d="M 188.75 339.75 A 37.75 37.75 0 0 1  226.5 302 L 188.75 339.75 A 37.75 37.75 0 0 0 226.5 302" fill="#ffffff"/><rect x="151" y="339.75" width="37.75" height="37.75" fill="#78eeb3"/><path d="M 188.75 339.75 A 37.75 37.75 0 0 1  226.5 377.5 L 188.75 339.75 A 37.75 37.75 0 0 0 226.5 377.5" fill="#ffffff"/><rect x="226.5" y="302" width="75.5" height="75.5" fill="#ffffff"/><path d="M 226.5 339.75 A 37.75 37.75 0 0 1  264.25 302 L 226.5 339.75 A 37.75 37.75 0 0 0 264.25 302" fill="#ffffff"/><rect x="264.25" y="302" width="37.75" height="37.75" fill="#fcfce5"/><rect x="226.5" y="339.75" width="37.75" height="37.75" fill="#f4f49c"/><g transform="translate(264.25,339.75) scale(1.8875) rotate(0)"><path d="M10 0L20 10L10 20L0 10L10 0Z" fill="#ffffff"/></g><rect x="302" y="302" width="75.5" height="75.5" fill="#ffffff"/><path d="M 302 339.75 A 37.75 37.75 0 0 1  339.75 302 L 302 339.75 A 37.75 37.75 0 0 0 339.75 302" fill="#ffffff"/><g transform="translate(339.75,302) scale(1.8875) rotate(0)"><path d="M10 0L20 10L10 20L0 10L10 0Z" fill="#ffffff"/></g><g transform="translate(302,339.75) scale(1.8875) rotate(0)"><path d="M10 0L20 10L10 20L0 10L10 0Z" fill="#47e898"/></g><path d="M 339.75 339.75 A 37.75 37.75 0 0 1  377.5 377.5 L 339.75 339.75 A 37.75 37.75 0 0 0 377.5 377.5" fill="#ffffff"/><path d="M 377.5 302 A 75.5 75.5 0 0 1  453 377.5 L 377.5 302 A 75.5 75.5 0 0 0 453 377.5" fill="#ffffff"/><rect x="453" y="302" width="75.5" height="75.5" fill="#ffffff"/><rect x="528.5" y="302" width="75.5" height="75.5" fill="#ffffff"/><path d="M 528.5 339.75 A 37.75 37.75 0 0 1  566.25 302 L 528.5 339.75 A 37.75 37.75 0 0 0 566.25 302" fill="#ffffff"/><rect x="566.25" y="302" width="37.75" height="37.75" fill="#9df3c8"/><g transform="translate(528.5,339.75) scale(1.8875) rotate(0)"><path d="M10 0L20 10L10 20L0 10L10 0Z" fill="#ffffff"/></g><rect x="566.25" y="339.75" width="37.75" height="37.75" fill="#f9f9c9"/><rect x="604" y="302" width="75.5" height="75.5" fill="#ffffff"/><path d="M 604 339.75 A 37.75 37.75 0 0 1  641.75 302 L 604 339.75 A 37.75 37.75 0 0 0 641.75 302" fill="#21e382"/><g transform="translate(641.75,302) scale(1.8875) rotate(0)"><path d="M10 0L20 10L10 20L0 10L10 0Z" fill="#fcfce4"/></g><g transform="translate(604,339.75) scale(1.8875) rotate(0)"><path d="M10 0L20 10L10 20L0 10L10 0Z" fill="#f8f8be"/></g><g transform="translate(679.5,302) scale(3.775) rotate(0)"><path d="M10 0L20 10L10 20L0 10L10 0Z" fill="#78eeb3"/></g><rect x="755" y="302" width="75.5" height="75.5" fill="#ffffff"/><path d="M 755 302 A 37.75 37.75 0 0 1  792.75 339.75 L 755 302 A 37.75 37.75 0 0 0 792.75 339.75" fill="#ffffff"/><path d="M 792.75 339.75 A 37.75 37.75 0 0 1  830.5 302 L 792.75 339.75 A 37.75 37.75 0 0 0 830.5 302" fill="#fbfbdc"/><g transform="translate(755,339.75) scale(1.8875) rotate(0)"><path d="M10 0L20 10L10 20L0 10L10 0Z" fill="#ffffff"/></g><rect x="792.75" y="339.75" width="37.75" height="37.75" fill="#fcfce5"/><g transform="translate(830.5,302) scale(3.775) rotate(0)"><path d="M10 0L20 10L10 20L0 10L10 0Z" fill="#55ea9f"/></g><path d="M 906 302 A 75.5 75.5 0 0 1  981.5 377.5 L 906 302 A 75.5 75.5 0 0 0 981.5 377.5" fill="#c1f7dc"/><rect x="981.5" y="302" width="75.5" height="75.5" fill="#ffffff"/><rect x="981.5" y="302" width="37.75" height="37.75" fill="#ffffff"/><rect x="981.5" y="339.75" width="37.75" height="37.75" fill="#ffffff"/><g transform="translate(1019.25,339.75) scale(1.8875) rotate(0)"><path d="M10 0L20 10L10 20L0 10L10 0Z" fill="#fcfce8"/></g><g transform="translate(1057,302) scale(3.775) rotate(0)"><path d="M10 0L20 10L10 20L0 10L10 0Z" fill="#fefef2"/></g><rect x="1132.5" y="302" width="75.5" height="75.5" fill="#ffffff"/><g transform="translate(1132.5,302) scale(1.8875) rotate(0)"><path d="M10 0L20 10L10 20L0 10L10 0Z" fill="#bef7da"/></g><rect x="1170.25" y="302" width="37.75" height="37.75" fill="#fdfdec"/><g transform="translate(1132.5,339.75) scale(1.8875) rotate(0)"><path d="M10 0L20 10L10 20L0 10L10 0Z" fill="#f7f7b7"/></g><rect x="1170.25" y="339.75" width="37.75" height="37.75" fill="#f8f8be"/><rect x="1208" y="302" width="75.5" height="75.5" fill="#ffffff"/><g transform="translate(1208,302) scale(1.8875) rotate(0)"><path d="M10 0L20 10L10 20L0 10L10 0Z" fill="#ffffff"/></g><path d="M 1245.75 302 A 37.75 37.75 0 0 1  1283.5 339.75 L 1245.75 302 A 37.75 37.75 0 0 0 1283.5 339.75" fill="#ffffff"/><g transform="translate(1208,339.75) scale(1.8875) rotate(0)"><path d="M10 0L20 10L10 20L0 10L10 0Z" fill="#ffffff"/></g><rect x="1245.75" y="339.75" width="37.75" height="37.75" fill="#ffffff"/><rect x="1283.5" y="302" width="75.5" height="75.5" fill="#44e896"/><rect x="1359" y="302" width="75.5" height="75.5" fill="#ffffff"/><rect x="1434.5" y="302" width="75.5" height="75.5" fill="#ffffff"/><rect x="1434.5" y="302" width="37.75" height="37.75" fill="#f4f49f"/><rect x="1472.25" y="302" width="37.75" height="37.75" fill="#59eaa1"/><g transform="translate(1434.5,339.75) scale(1.8875) rotate(0)"><path d="M10 0L20 10L10 20L0 10L10 0Z" fill="#ffffff"/></g><g transform="translate(1472.25,339.75) scale(1.8875) rotate(0)"><path d="M10 0L20 10L10 20L0 10L10 0Z" fill="#ffffff"/></g></g></svg>