<svg width="2000" height="500" viewBox="0 0 2000 500" fill="none" xmlns="http://www.w3.org/2000/svg">
<path d="M2000 0H0V500H2000V0Z" fill="#FAFAFA"/>
<path d="M150 100L200 150L150 200L100 150L150 100Z" fill="#FAFAFA"/>
<path d="M300 100H200V200H300V100Z" fill="#FAFAFA"/>
<path d="M225 150L250 175L225 200L200 175L225 150Z" fill="#F4F4A2"/>
<path d="M550 100L600 150L550 200L500 150L550 100Z" fill="#F5F5A7"/>
<path d="M1200 100H1100V200H1200V100Z" fill="#FAFAFA"/>
<path d="M1350 100L1400 150L1350 200L1300 150L1350 100Z" fill="#FAFAFA"/>
<path d="M1800 100H1700V200H1800V100Z" fill="#FAFAFA"/>
<path d="M100 200H0V300H100V200Z" fill="#FAFAFA"/>
<path d="M0 200C13.2608 200 25.9785 205.268 35.3553 214.645C44.7322 224.021 50 236.739 50 250L0 200C0 213.261 5.26784 225.979 14.6447 235.355C24.0215 244.732 36.7392 250 50 250" fill="#FAFAFA"/>
<path d="M75 200L100 225L75 250L50 225L75 200Z" fill="#79EEB4"/>
<path d="M100 250H50V300H100V250Z" fill="#FAFAFA"/>
<path d="M300 200H200V300H300V200Z" fill="#8FF1C0"/>
<path d="M500 200H400V300H500V200Z" fill="#FAFAFA"/>
<path d="M400 250C400 236.739 405.268 224.021 414.645 214.645C424.021 205.268 436.739 200 450 200L400 250C413.261 250 425.979 244.732 435.355 235.355C444.732 225.979 450 213.261 450 200" fill="#FAFAFA"/>
<path d="M450 250H400V300H450V250Z" fill="#FAFAFA"/>
<path d="M450 300C450 286.739 455.268 274.021 464.645 264.645C474.021 255.268 486.739 250 500 250L450 300C463.261 300 475.979 294.732 485.355 285.355C494.732 275.979 500 263.261 500 250" fill="#F3F397"/>
<path d="M1000 200H900V300H1000V200Z" fill="#FAFAFA"/>
<path d="M1300 200H1200V300H1300V200Z" fill="#FAFAFA"/>
<path d="M1400 200H1300V300H1400V200Z" fill="#FAFAFA"/>
<path d="M1400 200H1350V250H1400V200Z" fill="#FAFAFA"/>
<path d="M1350 250C1363.26 250 1375.98 255.268 1385.36 264.645C1394.73 274.021 1400 286.739 1400 300L1350 250C1350 263.261 1355.27 275.979 1364.64 285.355C1374.02 294.732 1386.74 300 1400 300" fill="#FAFAFA"/>
<path d="M1600 200H1500V300H1600V200Z" fill="#FAFAFA"/>
<path d="M1550 200H1500V250H1550V200Z" fill="#98F2C5"/>
<path d="M1575 200L1600 225L1575 250L1550 225L1575 200Z" fill="#FAFAFA"/>
<path d="M1575 250L1600 275L1575 300L1550 275L1575 250Z" fill="#F3F394"/>
<path d="M1800 200H1700V300H1800V200Z" fill="#FAFAFA"/>
<path d="M1750 300C1750 286.739 1755.27 274.021 1764.64 264.645C1774.02 255.268 1786.74 250 1800 250L1750 300C1763.26 300 1775.98 294.732 1785.36 285.355C1794.73 275.979 1800 263.261 1800 250" fill="#CDF9E3"/>
<path d="M1900 200H1800V300H1900V200Z" fill="#FAFAFA"/>
<path d="M1800 200C1813.26 200 1825.98 205.268 1835.36 214.645C1844.73 224.021 1850 236.739 1850 250L1800 200C1800 213.261 1805.27 225.979 1814.64 235.355C1824.02 244.732 1836.74 250 1850 250" fill="#FAFAFA"/>
<path d="M1900 200H1850V250H1900V200Z" fill="#FEFEF6"/>
<path d="M2000 200H1900V300H2000V200Z" fill="#FAFAFA"/>
<path d="M1925 200L1950 225L1925 250L1900 225L1925 200Z" fill="#D9FAE9"/>
<path d="M100 300H0V400H100V300Z" fill="#FAFAFA"/>
<path d="M50 300H0V350H50V300Z" fill="#FAFAFA"/>
<path d="M75 300L100 325L75 350L50 325L75 300Z" fill="#68ECAA"/>
<path d="M50 350H0V400H50V350Z" fill="#FAFAFA"/>
<path d="M50 400C50 386.739 55.2678 374.021 64.6447 364.645C74.0215 355.268 86.7392 350 100 350L50 400C63.2608 400 75.9785 394.732 85.3553 385.355C94.7322 375.979 100 363.261 100 350" fill="#FAFAFA"/>
<path d="M200 300H100V400H200V300Z" fill="#F9F9C8"/>
<path d="M500 300H400V400H500V300Z" fill="#FAFAFA"/>
<path d="M450 300H400V350H450V300Z" fill="#FAFAFA"/>
<path d="M400 400C400 386.739 405.268 374.021 414.645 364.645C424.021 355.268 436.739 350 450 350L400 400C413.261 400 425.979 394.732 435.355 385.355C444.732 375.979 450 363.261 450 350" fill="#FAFAFA"/>
<path d="M475 350L500 375L475 400L450 375L475 350Z" fill="#FAFAFA"/>
<path d="M600 300H500V400H600V300Z" fill="#FAFAFA"/>
<path d="M700 300H600V400H700V300Z" fill="#FAFAFA"/>
<path d="M650 300H600V350H650V300Z" fill="#FCFCE6"/>
<path d="M600 350C613.261 350 625.979 355.268 635.355 364.645C644.732 374.021 650 386.739 650 400L600 350C600 363.261 605.268 375.979 614.645 385.355C624.021 394.732 636.739 400 650 400" fill="#F6F6B3"/>
<path d="M675 350L700 375L675 400L650 375L675 350Z" fill="#FAFAFA"/>
<path d="M700 400C700 373.478 710.536 348.043 729.289 329.289C748.043 310.536 773.478 300 800 300L700 400C726.522 400 751.957 389.464 770.711 370.711C789.464 351.957 800 326.522 800 300" fill="#FAFAFA"/>
<path d="M950 300L1000 350L950 400L900 350L950 300Z" fill="#3FE793"/>
<path d="M1100 300H1000V400H1100V300Z" fill="#FAFAFA"/>
<path d="M1050 300C1063.26 300 1075.98 305.268 1085.36 314.645C1094.73 324.021 1100 336.739 1100 350L1050 300C1050 313.261 1055.27 325.979 1064.64 335.355C1074.02 344.732 1086.74 350 1100 350" fill="#A4F4CC"/>
<path d="M1200 300H1100V400H1200V300Z" fill="#FAFAFA"/>
<path d="M1250 300L1300 350L1250 400L1200 350L1250 300Z" fill="#F5F5AA"/>
<path d="M1350 300L1400 350L1350 400L1300 350L1350 300Z" fill="#FAFAFA"/>
<path d="M1450 300L1500 350L1450 400L1400 350L1450 300Z" fill="#E8FCF2"/>
<path d="M1600 300H1500V400H1600V300Z" fill="#FAFAFA"/>
<path d="M1700 300H1600V400H1700V300Z" fill="#FAFAFA"/>
<path d="M1800 300H1700V400H1800V300Z" fill="#FAFAFA"/>
<path d="M1725 300L1750 325L1725 350L1700 325L1725 300Z" fill="#FAFAFA"/>
<path d="M1775 300L1800 325L1775 350L1750 325L1775 300Z" fill="#FAFAFA"/>
<path d="M1700 400C1700 386.739 1705.27 374.021 1714.64 364.645C1724.02 355.268 1736.74 350 1750 350L1700 400C1713.26 400 1725.98 394.732 1735.36 385.355C1744.73 375.979 1750 363.261 1750 350" fill="#FAFAFA"/>
<path d="M1800 350H1750V400H1800V350Z" fill="#F8F8C0"/>
<path d="M1850 300L1900 350L1850 400L1800 350L1850 300Z" fill="#3FE793"/>
<path d="M2000 300H1900V400H2000V300Z" fill="#FAFAFA"/>
<path d="M1925 300L1950 325L1925 350L1900 325L1925 300Z" fill="#FAFAFA"/>
<path d="M1950 350H1900V400H1950V350Z" fill="#FAFEFC"/>
<path d="M1950 400C1950 386.739 1955.27 374.021 1964.64 364.645C1974.02 355.268 1986.74 350 2000 350L1950 400C1963.26 400 1975.98 394.732 1985.36 385.355C1994.73 375.979 2000 363.261 2000 350" fill="#FAFAFA"/>
<path d="M100 400H0V500H100V400Z" fill="#FAFAFA"/>
<path d="M0 400C13.2608 400 25.9785 405.268 35.3553 414.645C44.7322 424.021 50 436.739 50 450L0 400C0 413.261 5.26784 425.979 14.6447 435.355C24.0215 444.732 36.7392 450 50 450" fill="#FAFAFA"/>
<path d="M50 450C50 436.739 55.2678 424.021 64.6447 414.645C74.0215 405.268 86.7392 400 100 400L50 450C63.2608 450 75.9785 444.732 85.3553 435.355C94.7322 425.979 100 413.261 100 400" fill="#FAFAFA"/>
<path d="M25 450L50 475L25 500L0 475L25 450Z" fill="#FAFAFA"/>
<path d="M100 450H50V500H100V450Z" fill="#FAFAFA"/>
<path d="M200 400H100V500H200V400Z" fill="#FAFAFA"/>
<path d="M150 400H100V450H150V400Z" fill="#FAFAFA"/>
<path d="M200 400H150V450H200V400Z" fill="#FAFAFA"/>
<path d="M100 500C100 486.739 105.268 474.021 114.645 464.645C124.021 455.268 136.739 450 150 450L100 500C113.261 500 125.979 494.732 135.355 485.355C144.732 475.979 150 463.261 150 450" fill="#59EAA2"/>
<path d="M300 400H200V500H300V400Z" fill="#FAFAFA"/>
<path d="M200 450C200 436.739 205.268 424.021 214.645 414.645C224.021 405.268 236.739 400 250 400L200 450C213.261 450 225.979 444.732 235.355 435.355C244.732 425.979 250 413.261 250 400" fill="#FAFAFA"/>
<path d="M250 450C250 436.739 255.268 424.021 264.645 414.645C274.021 405.268 286.739 400 300 400L250 450C263.261 450 275.979 444.732 285.355 435.355C294.732 425.979 300 413.261 300 400" fill="#FAFAFA"/>
<path d="M250 450H200V500H250V450Z" fill="#78EEB3"/>
<path d="M250 450C263.261 450 275.979 455.268 285.355 464.645C294.732 474.021 300 486.739 300 500L250 450C250 463.261 255.268 475.979 264.645 485.355C274.021 494.732 286.739 500 300 500" fill="#FAFAFA"/>
<path d="M400 400H300V500H400V400Z" fill="#FAFAFA"/>
<path d="M300 450C300 436.739 305.268 424.021 314.645 414.645C324.021 405.268 336.739 400 350 400L300 450C313.261 450 325.979 444.732 335.355 435.355C344.732 425.979 350 413.261 350 400" fill="#FAFAFA"/>
<path d="M400 400H350V450H400V400Z" fill="#FCFCE5"/>
<path d="M350 450H300V500H350V450Z" fill="#F4F49C"/>
<path d="M375 450L400 475L375 500L350 475L375 450Z" fill="#FAFAFA"/>
<path d="M500 400H400V500H500V400Z" fill="#FAFAFA"/>
<path d="M400 450C400 436.739 405.268 424.021 414.645 414.645C424.021 405.268 436.739 400 450 400L400 450C413.261 450 425.979 444.732 435.355 435.355C444.732 425.979 450 413.261 450 400" fill="#FAFAFA"/>
<path d="M475 400L500 425L475 450L450 425L475 400Z" fill="#FAFAFA"/>
<path d="M425 450L450 475L425 500L400 475L425 450Z" fill="#47E898"/>
<path d="M450 450C463.261 450 475.979 455.268 485.355 464.645C494.732 474.021 500 486.739 500 500L450 450C450 463.261 455.268 475.979 464.645 485.355C474.021 494.732 486.739 500 500 500" fill="#FAFAFA"/>
<path d="M500 400C526.522 400 551.957 410.536 570.711 429.289C589.464 448.043 600 473.478 600 500L500 400C500 426.522 510.536 451.957 529.289 470.711C548.043 489.464 573.478 500 600 500" fill="#FAFAFA"/>
<path d="M700 400H600V500H700V400Z" fill="#FAFAFA"/>
<path d="M800 400H700V500H800V400Z" fill="#FAFAFA"/>
<path d="M700 450C700 436.739 705.268 424.021 714.645 414.645C724.021 405.268 736.739 400 750 400L700 450C713.261 450 725.979 444.732 735.355 435.355C744.732 425.979 750 413.261 750 400" fill="#FAFAFA"/>
<path d="M800 400H750V450H800V400Z" fill="#9DF3C8"/>
<path d="M725 450L750 475L725 500L700 475L725 450Z" fill="#FAFAFA"/>
<path d="M800 450H750V500H800V450Z" fill="#F9F9C9"/>
<path d="M900 400H800V500H900V400Z" fill="#FAFAFA"/>
<path d="M800 450C800 436.739 805.268 424.021 814.645 414.645C824.021 405.268 836.739 400 850 400L800 450C813.261 450 825.979 444.732 835.355 435.355C844.732 425.979 850 413.261 850 400" fill="#21E382"/>
<path d="M875 400L900 425L875 450L850 425L875 400Z" fill="#FCFCE4"/>
<path d="M825 450L850 475L825 500L800 475L825 450Z" fill="#F8F8BE"/>
<path d="M950 400L1000 450L950 500L900 450L950 400Z" fill="#78EEB3"/>
<path d="M1100 400H1000V500H1100V400Z" fill="#FAFAFA"/>
<path d="M1000 400C1013.26 400 1025.98 405.268 1035.36 414.645C1044.73 424.021 1050 436.739 1050 450L1000 400C1000 413.261 1005.27 425.979 1014.64 435.355C1024.02 444.732 1036.74 450 1050 450" fill="#FAFAFA"/>
<path d="M1050 450C1050 436.739 1055.27 424.021 1064.64 414.645C1074.02 405.268 1086.74 400 1100 400L1050 450C1063.26 450 1075.98 444.732 1085.36 435.355C1094.73 425.979 1100 413.261 1100 400" fill="#FBFBDC"/>
<path d="M1025 450L1050 475L1025 500L1000 475L1025 450Z" fill="#FAFAFA"/>
<path d="M1100 450H1050V500H1100V450Z" fill="#FCFCE5"/>
<path d="M1150 400L1200 450L1150 500L1100 450L1150 400Z" fill="#55EA9F"/>
<path d="M1200 400C1226.52 400 1251.96 410.536 1270.71 429.289C1289.46 448.043 1300 473.478 1300 500L1200 400C1200 426.522 1210.54 451.957 1229.29 470.711C1248.04 489.464 1273.48 500 1300 500" fill="#C1F7DC"/>
<path d="M1400 400H1300V500H1400V400Z" fill="#FAFAFA"/>
<path d="M1350 400H1300V450H1350V400Z" fill="#FAFAFA"/>
<path d="M1350 450H1300V500H1350V450Z" fill="#FAFAFA"/>
<path d="M1375 450L1400 475L1375 500L1350 475L1375 450Z" fill="#FCFCE8"/>
<path d="M1450 400L1500 450L1450 500L1400 450L1450 400Z" fill="#FEFEF2"/>
<path d="M1600 400H1500V500H1600V400Z" fill="#FAFAFA"/>
<path d="M1525 400L1550 425L1525 450L1500 425L1525 400Z" fill="#BEF7DA"/>
<path d="M1600 400H1550V450H1600V400Z" fill="#FDFDEC"/>
<path d="M1525 450L1550 475L1525 500L1500 475L1525 450Z" fill="#F7F7B7"/>
<path d="M1600 450H1550V500H1600V450Z" fill="#F8F8BE"/>
<path d="M1700 400H1600V500H1700V400Z" fill="#FAFAFA"/>
<path d="M1625 400L1650 425L1625 450L1600 425L1625 400Z" fill="#FAFAFA"/>
<path d="M1650 400C1663.26 400 1675.98 405.268 1685.36 414.645C1694.73 424.021 1700 436.739 1700 450L1650 400C1650 413.261 1655.27 425.979 1664.64 435.355C1674.02 444.732 1686.74 450 1700 450" fill="#FAFAFA"/>
<path d="M1625 450L1650 475L1625 500L1600 475L1625 450Z" fill="#FAFAFA"/>
<path d="M1700 450H1650V500H1700V450Z" fill="#FAFAFA"/>
<path d="M1800 400H1700V500H1800V400Z" fill="#44E896"/>
<path d="M1900 400H1800V500H1900V400Z" fill="#FAFAFA"/>
<path d="M2000 400H1900V500H2000V400Z" fill="#FAFAFA"/>
<path d="M1950 400H1900V450H1950V400Z" fill="#F4F49F"/>
<path d="M2000 400H1950V450H2000V400Z" fill="#59EAA1"/>
<path d="M1925 450L1950 475L1925 500L1900 475L1925 450Z" fill="#FAFAFA"/>
<path d="M1975 450L2000 475L1975 500L1950 475L1975 450Z" fill="#FAFAFA"/>
</svg>
