<?xml version="1.0" standalone="no"?><svg xmlns:xlink="http://www.w3.org/1999/xlink" xmlns="http://www.w3.org/2000/svg" viewBox="0 0 1900 1036.3801564956452" preserveAspectRatio="xMaxYMax slice"><g transform="scale(2.8393976890291652)"><rect x="0" y="0" width="669.1666666666667" height="365" fill="#fafafa"/><g transform="translate(243.33,0) scale(3.0415) rotate(0)"><path d="M10 0L20 10L10 20L0 10L10 0Z" fill="#70ebae"/></g><rect x="304.1666666666667" y="0" width="60.833333333333336" height="60.833333333333336" fill="#fafafa"/><rect x="608.3333333333334" y="0" width="60.833333333333336" height="60.833333333333336" fill="#fafafa"/><g transform="translate(608.33,121.67) scale(3.0415) rotate(0)"><path d="M10 0L20 10L10 20L0 10L10 0Z" fill="#f4f4ac"/></g><path d="M 425.83 243.32999999999998 A 60.83 60.83 0 0 1  486.65999999999997 182.5 L 425.83 243.32999999999998 A 60.83 60.83 0 0 0 486.65999999999997 182.5" fill="#f5f5b6"/><rect x="60.833333333333336" y="243.33333333333334" width="60.833333333333336" height="60.833333333333336" fill="#fafafa"/><path d="M 243.33 365 A 60.83 60.83 0 0 1  304.16 304.17 L 243.33 365 A 60.83 60.83 0 0 0 304.16 304.17" fill="#5ee9a4"/></g></svg>