<svg width="1900" height="792" viewBox="0 0 1900 792" fill="none" xmlns="http://www.w3.org/2000/svg">
<g clip-path="url(#clip0_162_149)">
<path d="M0 791.653H1900V-0.0133667H0V791.653Z" fill="#FAFAFA"/>
<path d="M1725.83 649.153C1725.83 682.749 1712.48 714.968 1688.73 738.723C1664.97 762.479 1632.75 775.824 1599.16 775.824L1725.83 649.153C1692.23 649.153 1660.01 662.499 1636.26 686.254C1612.5 710.01 1599.16 742.229 1599.16 775.824" fill="#FAFAF5"/>
<path d="M332.5 775.82H459.167V649.153H332.5V775.82Z" fill="#FAFAFA"/>
<path d="M237.494 775.824L174.158 712.489L237.494 649.153L300.829 712.489L237.494 775.824Z" fill="#92EFC1"/>
<path d="M649.158 617.482H775.829V490.812H649.158V617.482Z" fill="#F9F9E5"/>
<path d="M934.171 332.482C934.171 366.078 920.825 398.297 897.07 422.052C873.315 445.808 841.095 459.153 807.5 459.153L934.171 332.482C900.576 332.482 868.356 345.828 844.601 369.583C820.846 393.339 807.5 425.558 807.5 459.153" fill="#6AEBAA"/>
<path d="M459.171 300.824C425.576 300.824 393.356 287.479 369.601 263.723C345.846 239.968 332.5 207.749 332.5 174.153L459.171 300.824C459.171 267.229 445.825 235.01 422.07 211.254C398.314 187.499 366.095 174.153 332.5 174.153" fill="#F6F6B5"/>
<path d="M79.1646 300.824L15.8291 237.489L79.1646 174.153L142.5 237.489L79.1646 300.824Z" fill="#48E898"/>
<path d="M490.829 142.482H617.5V15.8115H490.829V142.482Z" fill="#F5F5A5"/>
<path d="M174.158 142.482H300.829V15.8115H174.158V142.482Z" fill="#F0F9F4"/>
<path d="M79.1646 142.482L15.8291 79.147L79.1646 15.8116L142.5 79.147L79.1646 142.482Z" fill="#48E898"/>
</g>
<defs>
<clipPath id="clip0_162_149">
<rect width="1900" height="791.653" fill="white" transform="translate(1900 791.653) rotate(-180)"/>
</clipPath>
</defs>
</svg>
