<svg width="1900" height="594" viewBox="0 0 1900 594" fill="none" xmlns="http://www.w3.org/2000/svg">
<g clip-path="url(#clip0_112_294)">
<path d="M0 593.75L1900 593.75L1900 0L0 0L0 593.75Z" fill="#FAFAFA"/>
<path d="M1306.24 474.994C1274.75 474.994 1244.54 462.482 1222.27 440.211C1200 417.94 1187.49 387.733 1187.49 356.237L1306.24 474.994C1306.24 443.498 1293.73 413.291 1271.46 391.02C1249.19 368.749 1218.98 356.237 1187.49 356.237" fill="#FAFAFA"/>
<path d="M831.244 356.237C831.244 387.733 818.732 417.94 796.461 440.211C774.19 462.482 743.983 474.994 712.487 474.994L831.244 356.237C799.748 356.237 769.541 368.749 747.27 391.02C724.999 413.291 712.487 443.498 712.487 474.994" fill="#FAFAFA"/>
<path d="M118.75 475L237.5 475L237.5 356.25L118.75 356.25L118.75 475Z" fill="#FAFAFA"/>
<path d="M1781.24 356.25L1900 356.25V237.494L1781.24 237.494V356.25Z" fill="#FAFAFA"/>
<path d="M1662.5 356.25L1781.25 356.25V237.5L1662.5 237.5V356.25Z" fill="#FAFAFA"/>
<path d="M1662.5 356.25H1721.88V296.872H1662.5V356.25Z" fill="#5EEAA4"/>
<path d="M1781.24 237.494C1781.24 253.242 1774.99 268.345 1763.85 279.48C1752.72 290.616 1737.61 296.872 1721.87 296.872L1781.24 237.494C1765.5 237.494 1750.39 243.75 1739.26 254.885C1728.12 266.021 1721.87 281.124 1721.87 296.872" fill="#8DEFBE"/>
<path d="M1662.5 296.872H1721.88V237.494L1662.5 237.494V296.872Z" fill="#FAFAFA"/>
<path d="M1543.75 356.25L1662.5 356.25V237.5L1543.75 237.5V356.25Z" fill="#FAFAFA"/>
<path d="M1632.81 356.25L1603.12 326.561L1632.81 296.872L1662.5 326.561L1632.81 356.25Z" fill="#FAFAFA"/>
<path d="M1543.74 356.25H1603.12V296.872H1543.74V356.25Z" fill="#F7F7CA"/>
<path d="M1603.12 296.872H1662.5V237.494L1603.12 237.494V296.872Z" fill="#F8F8E3"/>
<path d="M1365.62 356.25L1306.24 296.872L1365.62 237.494L1425 296.872L1365.62 356.25Z" fill="#FAFAFA"/>
<path d="M1187.5 356.25C1156 356.25 1125.8 343.738 1103.53 321.467C1081.26 299.196 1068.74 268.99 1068.74 237.494L1187.5 356.25C1187.5 324.754 1174.99 294.548 1152.72 272.277C1130.45 250.005 1100.24 237.494 1068.74 237.494" fill="#FAFAF8"/>
<path d="M1009.37 356.25L949.987 296.872L1009.37 237.494L1068.74 296.872L1009.37 356.25Z" fill="#FAFAFA"/>
<path d="M950 237.494C950 268.99 937.488 299.196 915.217 321.467C892.946 343.738 862.74 356.25 831.244 356.25L950 237.494C918.504 237.494 888.298 250.005 866.027 272.277C843.755 294.548 831.244 324.754 831.244 356.25" fill="#F4F4A4"/>
<path d="M771.866 356.25L712.487 296.872L771.866 237.494L831.244 296.872L771.866 356.25Z" fill="#F9F9F0"/>
<path d="M356.244 356.25L475 356.25L475 237.494L356.244 237.494L356.244 356.25Z" fill="#FAFAFA"/>
<path d="M118.744 237.494C118.744 253.089 115.672 268.532 109.704 282.94C103.736 297.348 94.9882 310.44 83.9607 321.467C72.9331 332.495 59.8416 341.242 45.4334 347.21C31.0253 353.178 15.5827 356.25 -0.0126438 356.25L118.744 237.494C87.2475 237.494 57.0415 250.005 34.7703 272.277C12.4992 294.548 -0.0126438 324.754 -0.0126438 356.25" fill="#FAFAFA"/>
<path d="M1781.25 237.5L1900 237.5V118.75L1781.25 118.75V237.5Z" fill="#FAFAFA"/>
<path d="M1900 237.494C1884.25 237.494 1869.15 231.238 1858.01 220.102C1846.88 208.967 1840.62 193.864 1840.62 178.116L1900 237.494C1900 221.746 1893.74 206.643 1882.61 195.507C1871.47 184.371 1856.37 178.116 1840.62 178.116" fill="#FAFAFA"/>
<path d="M1543.74 237.494L1662.5 237.494V118.737L1543.74 118.737V237.494Z" fill="#FAFAFA"/>
<path d="M1425 237.5L1543.75 237.5V118.75L1425 118.75V237.5Z" fill="#FAFAFA"/>
<path d="M1484.37 237.494L1543.74 237.494V178.116L1484.37 178.116V237.494Z" fill="#FAFAFA"/>
<path d="M1484.38 178.116C1484.38 193.864 1478.12 208.967 1466.99 220.102C1455.85 231.238 1440.75 237.494 1425 237.494L1484.38 178.116C1468.63 178.116 1453.53 184.371 1442.39 195.507C1431.26 206.643 1425 221.746 1425 237.494" fill="#FAFAFA"/>
<path d="M1484.37 178.128L1543.74 178.128V118.75L1484.37 118.75V178.128Z" fill="#F6F6C3"/>
<path d="M1425 178.128L1484.38 178.128V118.75L1425 118.75V178.128Z" fill="#FAFAFA"/>
<path d="M1306.25 237.5L1425 237.5V118.75L1306.25 118.75V237.5Z" fill="#FAFAFA"/>
<path d="M1365.62 237.494L1425 237.494V178.116L1365.62 178.116V237.494Z" fill="#FAFAFA"/>
<path d="M1395.31 178.128L1365.62 148.439L1395.31 118.75L1425 148.439L1395.31 178.128Z" fill="#45E896"/>
<path d="M1365.62 118.75C1365.62 134.498 1359.37 149.601 1348.23 160.737C1337.1 171.872 1321.99 178.128 1306.24 178.128L1365.62 118.75C1349.87 118.75 1334.77 125.006 1323.64 136.141C1312.5 147.277 1306.24 162.38 1306.24 178.128" fill="#FAFAFA"/>
<path d="M1306.24 237.494C1274.75 237.494 1244.54 224.982 1222.27 202.711C1200 180.44 1187.49 150.233 1187.49 118.737L1306.24 237.494C1306.24 205.998 1293.73 175.791 1271.46 153.52C1249.19 131.249 1218.98 118.737 1187.49 118.737" fill="#8CEFBD"/>
<path d="M1068.75 237.5L1187.5 237.5V118.75L1068.75 118.75V237.5Z" fill="#FAFAFA"/>
<path d="M1187.5 178.116C1187.5 193.864 1181.24 208.967 1170.11 220.102C1158.97 231.238 1143.87 237.494 1128.12 237.494L1187.5 178.116C1179.7 178.116 1171.98 179.651 1164.78 182.635C1157.57 185.619 1151.03 189.993 1145.51 195.507C1140 201.021 1135.63 207.567 1132.64 214.771C1129.66 221.975 1128.12 229.696 1128.12 237.494" fill="#FAFAFA"/>
<path d="M1128.12 237.494C1112.37 237.494 1097.27 231.238 1086.14 220.102C1075 208.967 1068.74 193.864 1068.74 178.116L1128.12 237.494C1128.12 229.696 1126.59 221.975 1123.6 214.771C1120.62 207.567 1116.24 201.021 1110.73 195.507C1105.22 189.993 1098.67 185.619 1091.47 182.635C1084.26 179.651 1076.54 178.116 1068.74 178.116" fill="#A7F2CC"/>
<path d="M1128.12 178.128L1187.5 178.128V118.75L1128.12 118.75V178.128Z" fill="#71ECAF"/>
<path d="M950 237.5L1068.75 237.5V118.75L950 118.75V237.5Z" fill="#FAFAFA"/>
<path d="M1039.05 237.494L1009.37 207.805L1039.05 178.116L1068.74 207.805L1039.05 237.494Z" fill="#FAFAFA"/>
<path d="M1039.05 178.128L1009.37 148.439L1039.05 118.75L1068.74 148.439L1039.05 178.128Z" fill="#FAFAFA"/>
<path d="M593.744 237.494L712.5 237.494V118.737L593.744 118.737V237.494Z" fill="#FAFAFA"/>
<path d="M593.744 118.737C593.744 150.233 581.232 180.44 558.961 202.711C536.69 224.982 506.483 237.494 474.987 237.494L593.744 118.737C578.148 118.737 562.706 121.809 548.298 127.777C533.889 133.745 520.798 142.493 509.77 153.52C498.743 164.548 489.995 177.639 484.027 192.048C478.059 206.456 474.987 221.898 474.987 237.494" fill="#FAFAFA"/>
<path d="M415.622 237.494L356.244 178.116L415.622 118.737L475 178.116L415.622 237.494Z" fill="#C3F4DC"/>
<path d="M178.122 237.494L118.744 178.116L178.122 118.737L237.5 178.116L178.122 237.494Z" fill="#FAFAFA"/>
<path d="M-0.0126419 237.494L118.744 237.494L118.744 118.737L-0.0126419 118.737L-0.0126419 237.494Z" fill="#F4F49F"/>
<path d="M1781.25 118.75L1900 118.75V0L1781.25 0V118.75Z" fill="#FAFAFA"/>
<path d="M1840.62 118.75L1900 118.75V59.3719L1840.62 59.3719V118.75Z" fill="#FAFAFA"/>
<path d="M1781.24 118.75L1840.62 118.75V59.3719L1781.24 59.3719V118.75Z" fill="#FAFAFA"/>
<path d="M1870.31 59.3718L1840.62 29.6828L1870.31 -0.00631618L1900 29.6828L1870.31 59.3718Z" fill="#FAFAFA"/>
<path d="M1810.93 59.3718L1781.24 29.6828L1810.93 -0.00631618L1840.62 29.6828L1810.93 59.3718Z" fill="#FAFAFA"/>
<path d="M1662.5 118.75L1781.25 118.75V0L1662.5 0V118.75Z" fill="#FAFAFA"/>
<path d="M1721.87 118.75L1781.24 118.75V59.3719L1721.87 59.3719V118.75Z" fill="#6CECAC"/>
<path d="M1662.5 118.75L1721.88 118.75V59.3719L1662.5 59.3719V118.75Z" fill="#FAFAF9"/>
<path d="M1781.24 -0.00632192C1781.24 15.7417 1774.99 30.8448 1763.85 41.9804C1752.72 53.1159 1737.61 59.3718 1721.87 59.3718L1781.24 -0.00632192C1765.5 -0.00632192 1750.39 6.24956 1739.26 17.3851C1728.12 28.5207 1721.87 43.6238 1721.87 59.3718" fill="#50E99C"/>
<path d="M1662.5 59.3718L1721.88 59.3718V-0.00632095L1662.5 -0.00632095V59.3718Z" fill="#FAFAFA"/>
<path d="M1662.5 -0.00629619C1662.5 31.4898 1649.99 61.696 1627.72 83.9671C1605.45 106.238 1575.24 118.75 1543.74 118.75L1662.5 -0.00629619C1631 -0.00629619 1600.8 12.5055 1578.53 34.7766C1556.26 57.0478 1543.74 87.2539 1543.74 118.75" fill="#FAFAFA"/>
<path d="M1425 118.75L1543.75 118.75V0L1425 0V118.75Z" fill="#FAFAFA"/>
<path d="M1484.37 118.75L1543.74 118.75V59.3719L1484.37 59.3719V118.75Z" fill="#FAFAFA"/>
<path d="M1425 118.75L1484.38 118.75V59.3719L1425 59.3719V118.75Z" fill="#FAFAFA"/>
<path d="M1484.37 59.3718L1543.74 59.3718V-0.00632095L1484.37 -0.00632095V59.3718Z" fill="#FAFAFA"/>
<path d="M1484.38 -0.00632192C1484.38 15.7417 1478.12 30.8448 1466.99 41.9804C1455.85 53.1159 1440.75 59.3718 1425 59.3718L1484.38 -0.00632192C1468.63 -0.00632192 1453.53 6.24956 1442.39 17.3851C1431.26 28.5207 1425 43.6238 1425 59.3718" fill="#FAFAFA"/>
<path d="M1306.25 118.75L1425 118.75V0L1306.25 0V118.75Z" fill="#FAFAFA"/>
<path d="M1365.62 118.75L1425 118.75V59.3719L1365.62 59.3719V118.75Z" fill="#FAFAFA"/>
<path d="M1335.93 118.75L1306.24 89.0609L1335.93 59.3719L1365.62 89.0609L1335.93 118.75Z" fill="#FAFAF9"/>
<path d="M1335.93 59.3718L1306.24 29.6828L1335.93 -0.00631618L1365.62 29.6828L1335.93 59.3718Z" fill="#FAFAFA"/>
<path d="M1187.49 118.75L1306.24 118.75V-0.00629425L1187.49 -0.00629425V118.75Z" fill="#F4F4A9"/>
<path d="M1187.5 -0.00629619C1187.5 31.4898 1174.99 61.696 1152.72 83.9671C1130.45 106.238 1100.24 118.75 1068.74 118.75L1187.5 -0.00629619C1156 -0.00629619 1125.8 12.5055 1103.53 34.7766C1081.26 57.0478 1068.74 87.2539 1068.74 118.75" fill="#FAFAFA"/>
<path d="M949.987 118.75L1068.74 118.75V-0.00629425L949.987 -0.00629425V118.75Z" fill="#F9F9EB"/>
<path d="M831.25 118.75L950 118.75V0L831.25 0V118.75Z" fill="#FAFAFA"/>
<path d="M950 118.75C942.202 118.75 934.481 117.214 927.277 114.23C920.073 111.246 913.527 106.872 908.013 101.359C902.5 95.8448 898.126 89.299 895.142 82.0949C892.158 74.8908 890.622 67.1695 890.622 59.3719L950 118.75C950 110.952 948.464 103.231 945.48 96.027C942.496 88.8229 938.122 82.2771 932.609 76.7633C927.095 71.2495 920.549 66.8758 913.345 63.8918C906.141 60.9077 898.42 59.3719 890.622 59.3719" fill="#FAFAFA"/>
<path d="M831.244 118.75L890.622 118.75V59.3719L831.244 59.3719V118.75Z" fill="#FAFAFA"/>
<path d="M920.311 59.3718L890.622 29.6828L920.311 -0.00631618L950 29.6828L920.311 59.3718Z" fill="#F6F6C3"/>
<path d="M890.622 59.3718C874.874 59.3718 859.771 53.1159 848.635 41.9804C837.5 30.8448 831.244 15.7417 831.244 -0.00632192L890.622 59.3718C890.622 43.6238 884.366 28.5207 873.231 17.3851C862.095 6.24956 846.992 -0.00632192 831.244 -0.00632192" fill="#FAFAFA"/>
<path d="M712.487 118.75L831.244 118.75V-0.00629425L712.487 -0.00629425V118.75Z" fill="#FAFAFA"/>
<path d="M653.122 118.75L593.744 59.3719L653.122 -0.00628471L712.5 59.3719L653.122 118.75Z" fill="#FAFAFA"/>
<path d="M534.366 118.75L474.987 59.3719L534.366 -0.00628471L593.744 59.3719L534.366 118.75Z" fill="#F4F4A6"/>
<path d="M415.622 118.75L356.244 59.3719L415.622 -0.00628471L475 59.3719L415.622 118.75Z" fill="#FAFAFA"/>
<path d="M237.5 118.75L356.25 118.75L356.25 0L237.5 0L237.5 118.75Z" fill="#FAFAFA"/>
<path d="M326.555 118.75L296.866 89.0609L326.555 59.3719L356.244 89.0609L326.555 118.75Z" fill="#B3F3D3"/>
<path d="M296.878 118.75C289.08 118.75 281.359 117.214 274.155 114.23C266.951 111.246 260.405 106.872 254.891 101.359C249.378 95.8448 245.004 89.299 242.02 82.0949C239.036 74.8908 237.5 67.1695 237.5 59.3719L296.878 118.75C296.878 103.002 290.622 87.8989 279.487 76.7633C268.351 65.6277 253.248 59.3719 237.5 59.3719" fill="#4AE899"/>
<path d="M326.555 59.3718L296.866 29.6828L326.555 -0.00631618L356.244 29.6828L326.555 59.3718Z" fill="#B2F3D2"/>
<path d="M267.189 59.3718L237.5 29.6828L267.189 -0.00631618L296.878 29.6828L267.189 59.3718Z" fill="#FAFAFA"/>
<path d="M118.744 118.75L237.5 118.75L237.5 -0.00629425L118.744 -0.00629425L118.744 118.75Z" fill="#FAFAFA"/>
<path d="M118.744 -0.00629619C118.744 15.589 115.672 31.0316 109.704 45.4398C103.736 59.848 94.9882 72.9396 83.9607 83.9671C72.9331 94.9946 59.8416 103.742 45.4334 109.71C31.0253 115.678 15.5827 118.75 -0.0126438 118.75L118.744 -0.00629619C87.2475 -0.00629619 57.0415 12.5055 34.7703 34.7766C12.4992 57.0478 -0.0126438 87.2539 -0.0126438 118.75" fill="#F8F8DB"/>
</g>
<defs>
<clipPath id="clip0_112_294">
<rect width="1900" height="593.75" fill="white" transform="translate(1900 593.75) rotate(-180)"/>
</clipPath>
</defs>
</svg>
