<svg width="1900" height="792" viewBox="0 0 1900 792" fill="none" xmlns="http://www.w3.org/2000/svg">
<g clip-path="url(#clip0_161_138)">
<path d="M1900 0H0V791.667H1900V0Z" fill="#FAFAFA"/>
<path d="M1029.16 206.471L1060.2 237.506L1029.16 268.542L998.129 237.506L1029.16 206.471Z" fill="#8FF1C0"/>
<path d="M1535.19 206.477L1484.69 206.471L1499.44 221.224L1473.13 247.545L1494.13 268.542L1520.45 242.226L1535.2 256.98L1535.19 206.477Z" fill="#F6F6AE"/>
<path d="M395.835 349.6L442.07 395.836L395.835 442.071L349.6 395.836L395.835 349.6Z" fill="#54EA9F"/>
<path d="M789.127 635.886L664.429 635.871L700.846 672.302L635.871 737.294L687.721 789.142L752.711 724.161L789.142 760.592L789.127 635.886Z" fill="#FAFAD5"/>
</g>
<defs>
<clipPath id="clip0_161_138">
<rect width="1900" height="791.653" fill="white"/>
</clipPath>
</defs>
</svg>
